<?xml version="1.0" encoding="UTF-8" standalone="no"?>
<!-- Created with Inkscape (http://www.inkscape.org/) -->

<svg
   xmlns:dc="http://purl.org/dc/elements/1.1/"
   xmlns:cc="http://creativecommons.org/ns#"
   xmlns:rdf="http://www.w3.org/1999/02/22-rdf-syntax-ns#"
   xmlns:svg="http://www.w3.org/2000/svg"
   xmlns="http://www.w3.org/2000/svg"
   xmlns:sodipodi="http://sodipodi.sourceforge.net/DTD/sodipodi-0.dtd"
   xmlns:inkscape="http://www.inkscape.org/namespaces/inkscape"
   width="744.09448819"
   height="1052.3622047"
   id="svg2"
   version="1.1"
   inkscape:version="0.48.4 r9939"
   sodipodi:docname="New document 1">
  <defs
     id="defs4" />
  <sodipodi:namedview
     id="base"
     pagecolor="#ffffff"
     bordercolor="#666666"
     borderopacity="1.0"
     inkscape:pageopacity="0.0"
     inkscape:pageshadow="2"
     inkscape:zoom="1.4"
     inkscape:cx="107.68424"
     inkscape:cy="321.79512"
     inkscape:document-units="px"
     inkscape:current-layer="layer1"
     showgrid="false"
     inkscape:window-width="1366"
     inkscape:window-height="705"
     inkscape:window-x="-8"
     inkscape:window-y="-8"
     inkscape:window-maximized="1" />
  <metadata
     id="metadata7">
    <rdf:RDF>
      <cc:Work
         rdf:about="">
        <dc:format>image/svg+xml</dc:format>
        <dc:type
           rdf:resource="http://purl.org/dc/dcmitype/StillImage" />
        <dc:title></dc:title>
      </cc:Work>
    </rdf:RDF>
  </metadata>
  <g
     inkscape:label="Layer 1"
     inkscape:groupmode="layer"
     id="layer1">
    <g
       id="g3787"
       transform="matrix(0.18967818,0,0,0.18967818,54.684832,648.31942)"
       inkscape:export-filename="C:\Users\Dan\Stuff\Work\g51fse\git\assets\images\enemy\Snowman.png"
       inkscape:export-xdpi="90"
       inkscape:export-ydpi="90">
      <path
         inkscape:transform-center-y="92.895725"
         inkscape:transform-center-x="22.223356"
         inkscape:connector-curvature="0"
         id="path3775"
         d="m 215.14033,514.72058 -103.05928,-82.01051 -26.462995,-89.17832 -6.536779,1.18455 25.162564,86.95534 -34.526768,-2.52408 -0.231746,8.62763 34.839704,1.882 104.85345,85.66601 z"
         style="fill:#552200;fill-opacity:1;stroke:#000000;stroke-width:4;stroke-linecap:butt;stroke-linejoin:miter;stroke-miterlimit:4;stroke-opacity:1;stroke-dasharray:none" />
      <path
         d="m 402.85713,666.64789 c 0,72.586 -58.84257,131.42857 -131.42857,131.42857 -72.586,0 -131.42858,-58.84257 -131.42858,-131.42857 0,-72.586 58.84258,-131.42858 131.42858,-131.42858 72.586,0 131.42857,58.84258 131.42857,131.42858 z"
         sodipodi:ry="131.42857"
         sodipodi:rx="131.42857"
         sodipodi:cy="666.64789"
         sodipodi:cx="271.42856"
         id="path2985"
         style="fill:#ffffff;fill-opacity:1;stroke:#000000;stroke-width:4;stroke-miterlimit:4;stroke-opacity:1;stroke-dasharray:none"
         sodipodi:type="arc" />
      <path
         transform="matrix(0.79180475,0,0,0.79180475,55.744766,-3.4329813)"
         sodipodi:type="arc"
         style="fill:#ffffff;fill-opacity:1;stroke:#000000;stroke-width:5.05175066;stroke-miterlimit:4;stroke-opacity:1;stroke-dasharray:none"
         id="path3773"
         sodipodi:cx="271.42856"
         sodipodi:cy="666.64789"
         sodipodi:rx="131.42857"
         sodipodi:ry="131.42857"
         d="m 402.85713,666.64789 c 0,72.586 -58.84257,131.42857 -131.42857,131.42857 -72.586,0 -131.42858,-58.84257 -131.42858,-131.42857 0,-72.586 58.84258,-131.42858 131.42858,-131.42858 72.586,0 131.42857,58.84258 131.42857,131.42858 z" />
      <path
         d="m 402.85713,666.64789 c 0,72.586 -58.84257,131.42857 -131.42857,131.42857 -72.586,0 -131.42858,-58.84257 -131.42858,-131.42857 0,-72.586 58.84258,-131.42858 131.42858,-131.42858 72.586,0 131.42857,58.84258 131.42857,131.42858 z"
         sodipodi:ry="131.42857"
         sodipodi:rx="131.42857"
         sodipodi:cy="666.64789"
         sodipodi:cx="271.42856"
         id="path2985-1"
         style="fill:#ffffff;fill-opacity:1;stroke:#000000;stroke-width:5.5858326;stroke-miterlimit:4;stroke-opacity:1;stroke-dasharray:none"
         sodipodi:type="arc"
         transform="matrix(0.71609739,0,0,0.71609739,73.324364,-87.313115)" />
      <path
         style="fill:#552200;fill-opacity:1;stroke:#000000;stroke-width:4;stroke-linecap:butt;stroke-linejoin:miter;stroke-miterlimit:4;stroke-opacity:1;stroke-dasharray:none"
         d="m 309.56234,530.48692 119.30811,-55.78992 91.63686,15.99218 1.8485,-6.38088 -89.06741,-16.16736 17.62684,-29.79536 -7.62291,-4.04735 -17.19113,30.36137 -123.38011,55.76967 z"
         id="path3777"
         inkscape:connector-curvature="0" />
      <path
         transform="translate(917.21851,-16.162441)"
         d="m -688.92402,383.6412 c 0,10.04206 -7.68844,18.18275 -17.1726,18.18275 -9.48416,0 -17.17259,-8.14069 -17.17259,-18.18275 0,-10.04205 7.68843,-18.18274 17.17259,-18.18274 9.48416,0 17.1726,8.14069 17.1726,18.18274 z"
         sodipodi:ry="18.182745"
         sodipodi:rx="17.172594"
         sodipodi:cy="383.6412"
         sodipodi:cx="-706.09662"
         id="path3779"
         style="fill:#ff0000;fill-opacity:1;stroke:#000000;stroke-width:4;stroke-miterlimit:4;stroke-opacity:1;stroke-dasharray:none"
         sodipodi:type="arc" />
      <path
         sodipodi:type="arc"
         style="fill:#ff0000;fill-opacity:1;stroke:#000000;stroke-width:4;stroke-miterlimit:4;stroke-opacity:1;stroke-dasharray:none"
         id="path3781"
         sodipodi:cx="-706.09662"
         sodipodi:cy="383.6412"
         sodipodi:rx="17.172594"
         sodipodi:ry="18.182745"
         d="m -688.92402,383.6412 c 0,10.04206 -7.68844,18.18275 -17.1726,18.18275 -9.48416,0 -17.17259,-8.14069 -17.17259,-18.18275 0,-10.04205 7.68843,-18.18274 17.17259,-18.18274 9.48416,0 17.1726,8.14069 17.1726,18.18274 z"
         transform="translate(963.68553,-2.0203054)" />
      <path
         inkscape:connector-curvature="0"
         id="path3783"
         d="m 229.28571,388.07647 -52.14285,8.57143 -30,-8.57143 29.28571,20.71429 56.42857,5.71428 z"
         style="fill:#ff880b;fill-opacity:1;stroke:#000000;stroke-width:4;stroke-linecap:butt;stroke-linejoin:miter;stroke-miterlimit:4;stroke-opacity:1;stroke-dasharray:none" />
      <path
         sodipodi:nodetypes="ccc"
         inkscape:connector-curvature="0"
         id="path3785"
         d="m 190.64419,432.69608 c 45.43232,-36.58014 55.6719,-8.44596 64.92008,29.64602 -27.187,-14.54041 -36.91718,-24.58874 -64.92008,-29.64602 z"
         style="fill:#ffffff;fill-opacity:1;stroke:#000000;stroke-width:4;stroke-linecap:butt;stroke-linejoin:miter;stroke-miterlimit:4;stroke-opacity:1;stroke-dasharray:none" />
    </g>
  </g>
</svg>
